# xmcd
#
# Track frame offsets:
#	150
#	11457
#	22129
#	32669
#	44541
#	62436
#	71421
#	77498
#	85198
#	92575
#	101662
#	111791
#	121081
#	133028
#	140705
#	149989
#	159841
#	165708
#
# Disc length: 2306 seconds
#
# Revision: 0
# Processed by: cddbd v1.4b41PL3 Copyright (c) Steve Scherf et al.
# Submitted via: EZCDDA 4.3.3.2
#
DISCID=ef090012
DTITLE=Buck Owens - Above And Beyond
DYEAR=1900
DGENRE=
TTITLE0=Above And Beyond
TTITLE1=Under The Influence Of Love
TTITLE2=Buck Owens Excuse Me
TTITLE3=Foolin' Around
TTITLE4=Leavin' Dirty Tracks
TTITLE5=After The Dance
TTITLE6=Blue Love
TTITLE7=That Ain't Right Baby
TTITLE8=Down On The Corner Of Love
TTITLE9=Why Don't Mommy Stay With Daddy And Me
TTITLE10=House Down The Block
TTITLE11=It Don't Show On Me
TTITLE12=Loose Talk
TTITLE13=Please Don't Take Her From Me
TTITLE14=Rhythm And Booze
TTITLE15=There Goes My Love
TTITLE16=Three Dimension Love
TTITLE17=You're For Me
EXTD=
EXTT0=
EXTT1=
EXTT2=
EXTT3=
EXTT4=
EXTT5=
EXTT6=
EXTT7=
EXTT8=
EXTT9=
EXTT10=
EXTT11=
EXTT12=
EXTT13=
EXTT14=
EXTT15=
EXTT16=
EXTT17=
PLAYORDER=
